<?xml version="1.0" encoding="utf-8"?>
<!-- Generator: Adobe Illustrator 24.0.1, SVG Export Plug-In . SVG Version: 6.00 Build 0)  -->
<svg version="1.1" id="Layer_1" xmlns="http://www.w3.org/2000/svg" xmlns:xlink="http://www.w3.org/1999/xlink" x="0px" y="0px"
	 viewBox="0 0 79 79" style="enable-background:new 0 0 79 79;" xml:space="preserve">
<style type="text/css">
	.st0{fill:#FF26BE;}
	.st1{fill:#FF26BE;stroke:#FF26BE;stroke-width:2;stroke-miterlimit:10;}
</style>
<g id="Lag_3">
	<g>
		<path class="st0" d="M75,4v71H4V4H75 M79,0H0v79h79V0L79,0z"/>
	</g>
	<g>
		<path class="st1" d="M38.4,58.1h-4.7l-9.6-15.7l-9.8,15.7H9.9l11.9-18.7l-11.1-17h4.6l8.9,14.1l8.9-14.1h4.4l-11,16.9L38.4,58.1z"
			/>
		<path class="st1" d="M61.1,54.5h-0.2c-1.9,2.7-4.7,4.1-8.4,4.1c-3.5,0-6.2-1.2-8.2-3.6c-1.9-2.4-2.9-5.8-2.9-10.2s1-7.8,2.9-10.3
			s4.7-3.7,8.2-3.7c3.6,0,6.4,1.3,8.3,4h0.3L61,32.9L60.9,31V20.1H65v38h-3.3L61.1,54.5z M53,55.2c2.8,0,4.8-0.8,6-2.3
			s1.9-3.9,1.9-7.3v-0.9c0-3.8-0.6-6.5-1.9-8.1c-1.3-1.6-3.3-2.4-6-2.4c-2.4,0-4.2,0.9-5.5,2.8c-1.3,1.8-1.9,4.5-1.9,7.8
			c0,3.4,0.6,6,1.9,7.7C48.7,54.3,50.6,55.2,53,55.2z"/>
	</g>
</g>
</svg>
